<svg xmlns="http://www.w3.org/2000/svg" width="344.99" height="30.215" viewBox="0 0 344.99 30.215">
  <g id="Formas_de_pagamento" data-name="Formas de pagamento" transform="translate(-510.532 -931.886)">
    <path id="Vector" d="M1.875,0h40.31A1.875,1.875,0,0,1,44.06,1.875V27.188a1.875,1.875,0,0,1-1.875,1.875H1.875A1.875,1.875,0,0,1,0,27.188V1.875A1.875,1.875,0,0,1,1.875,0Z" transform="translate(750.995 932.569)" fill="#fff" stroke="#c1c4cc" stroke-width="0.938"/>
    <g id="Grupo_51" data-name="Grupo 51" transform="translate(-1043.108 -6149.146)">
      <path id="Vector-2" data-name="Vector" d="M1.917,0H42.143A1.9,1.9,0,0,1,44.06,1.875V27.188a1.9,1.9,0,0,1-1.917,1.875H1.917A1.9,1.9,0,0,1,0,27.188V1.875A1.9,1.9,0,0,1,1.917,0Z" transform="translate(1614.108 7081.5)" fill="#fff" stroke="#c1c4cc" stroke-width="0.938"/>
      <g id="Grupo_38" data-name="Grupo 38" transform="translate(1621.203 7091)">
        <path id="Vector-3" data-name="Vector" d="M2.565,9.364H0L1.6,0H4.168Z" transform="translate(10.419 0.008)" fill="#182e66" fill-rule="evenodd"/>
        <path id="Vector-4" data-name="Vector" d="M11.114.008,7.226,9.372H4.68L2.557,1.237A9.143,9.143,0,0,0,0,.167L.045.008H3.9a1.045,1.045,0,0,1,1.16.844l.822,4.209.276,1.387L8.484.008Z" fill="#182e66" fill-rule="evenodd"/>
        <path id="Vector-5" data-name="Vector" d="M5.9,6.485l-.75-3.6L3.82,6.485Zm.279,2.876-.275-1.39H2.931L2.437,9.366H0L3.494.7A1.082,1.082,0,0,1,4.576,0H7.154L9.03,9.366Z" transform="translate(20.84 0.006)" fill="#182e66" fill-rule="evenodd"/>
        <path id="Vector-6" data-name="Vector" d="M3.36,2.677C3.36,3.7,6.6,3.918,6.6,6.27c0,2.261-2.392,3.094-3.978,3.094A6.435,6.435,0,0,1,0,8.853L.346,6.821c.951.774,3.833.994,3.833-.233S.966,5.332.966,2.994C.966.511,3.7,0,4.856,0A6.629,6.629,0,0,1,6.947.395L6.615,2.337c-.99-.556-3.255-.683-3.255.339Z" transform="translate(14.588 0.008)" fill="#182e66" fill-rule="evenodd"/>
        <path id="Vector-7" data-name="Vector" d="M5.557,5.045A7.313,7.313,0,0,0,3.429,1.974,8.764,8.764,0,0,0,0,.163L.042.005H3.683a1.008,1.008,0,0,1,1.1.844l.776,4.2" transform="translate(0 0.003)" fill="#182e66" fill-rule="evenodd"/>
      </g>
    </g>
    <g id="Grupo_49" data-name="Grupo 49" transform="translate(-855.953 -6195.146)">
      <path id="Vector-8" data-name="Vector" d="M1.875,0H42.188a1.875,1.875,0,0,1,1.875,1.875V27.188a1.875,1.875,0,0,1-1.875,1.875H1.875A1.875,1.875,0,0,1,0,27.188V1.875A1.875,1.875,0,0,1,1.875,0Z" transform="translate(1546.949 7127.715)" fill="#fff" stroke="#c1c4cc" stroke-width="0.938"/>
      <g id="Grupo_34" data-name="Grupo 34" transform="translate(99.98 -2.462)">
        <path id="Vector-9" data-name="Vector" d="M0,0H7.5V13.475H0Z" transform="translate(1465.271 7136.511)" fill="#ff5f00" fill-rule="evenodd"/>
        <path id="Vector-10" data-name="Vector" d="M11.453,12.316a8.555,8.555,0,0,0,2.413,2.991,8.57,8.57,0,1,1,0-13.475,8.577,8.577,0,0,0-2.413,10.483Z" transform="translate(1455.155 7134.678)" fill="#eb001b" fill-rule="evenodd"/>
        <path id="Vector-11" data-name="Vector" d="M.656.329V.078L.563.294H.5L.408.078V.333H.346V0H.433l.1.229L.633,0H.72V.333Zm-.545,0V.057H0V0H.281V.057H.17V.333Z" transform="translate(1481.897 7148.226)" fill="#f79e1b" fill-rule="evenodd"/>
        <path id="Vector-12" data-name="Vector" d="M13.865,8.569A8.57,8.57,0,0,1,0,15.306a8.571,8.571,0,0,0,2.412-2.992,8.571,8.571,0,0,0,.862-3.745,8.571,8.571,0,0,0-.862-3.745A8.571,8.571,0,0,0,0,1.832,8.57,8.57,0,0,1,13.865,8.569Z" transform="translate(1469.02 7134.678)" fill="#f79e1b" fill-rule="evenodd"/>
        <path id="Vector-13" data-name="Vector" d="M3.019,3.131V1.893c0-.374-.162-.584-.487-.584A.516.516,0,0,0,2,1.893V3.131H1.509V1.893c0-.374-.162-.584-.487-.584S.488,1.5.488,1.893V3.131H0V.89H.487v.281a.75.75,0,0,1,.65-.327.811.811,0,0,1,.743.4.914.914,0,0,1,.789-.4.819.819,0,0,1,.882.881V3.131Zm7.75-1.8H9.98V2.339c0,.234.093.375.325.375a.76.76,0,0,0,.418-.117l.14.421a1.292,1.292,0,0,1-.6.164c-.557,0-.766-.3-.766-.818V1.332H9.053V.888h.441V.21h.488V.888h.789ZM15.234.863l-.14.469a1.351,1.351,0,0,0-.3-.047c-.307,0-.469.209-.469.584V3.131h-.488V.89h.488v.281A.656.656,0,0,1,14.9.844a1.523,1.523,0,0,1,.33.02Zm-6.787.61a1.665,1.665,0,0,0-.7-.187c-.256,0-.418.094-.418.257,0,.14.166.187.375.21l.233.03c.464.07.766.28.766.678,0,.421-.372.725-1.022.725A1.634,1.634,0,0,1,6.732,2.9l.233-.375a1.276,1.276,0,0,0,.742.233c.323,0,.511-.118.511-.281,0-.116-.14-.187-.395-.233l-.233-.023c-.485-.072-.766-.281-.766-.656,0-.443.372-.725.929-.725a1.585,1.585,0,0,1,.906.233ZM21.94.863l-.14.469a1.351,1.351,0,0,0-.3-.047c-.307,0-.469.209-.469.584V3.131h-.487V.89h.49v.281a.656.656,0,0,1,.58-.327,1.522,1.522,0,0,1,.327.02ZM15.392,2.012A1.118,1.118,0,0,1,16.576.844a1.15,1.15,0,0,1,.789.253l-.233.4a.937.937,0,0,0-.58-.21.687.687,0,0,0-.673.725.662.662,0,0,0,.673.725.937.937,0,0,0,.58-.21l.233.4a1.15,1.15,0,0,1-.789.257A1.118,1.118,0,0,1,15.392,2.01Zm4.5,1.12h-.487V2.851a.779.779,0,0,1-.7.327A1.116,1.116,0,0,1,17.6,2.012,1.116,1.116,0,0,1,18.712.844a.836.836,0,0,1,.693.325V.888h.487V2.01ZM18.14,2.283a.675.675,0,0,0,1.31-.273.675.675,0,1,0-1.346,0A.675.675,0,0,0,18.14,2.283ZM12.712.937a1.031,1.031,0,0,1,.59,1.1V2.22H11.654a.627.627,0,0,0,.673.537,1.1,1.1,0,0,0,.65-.233l.233.351a1.414,1.414,0,0,1-.906.3A1.094,1.094,0,0,1,11.167,2.01,1.089,1.089,0,0,1,12.28.844a1.031,1.031,0,0,1,.432.093Zm-.431.327a.59.59,0,0,0-.6.537h1.16a.545.545,0,0,0-.557-.537ZM24.376,3.132h-.487V2.851a.779.779,0,0,1-.7.327,1.116,1.116,0,0,1-1.115-1.166A1.116,1.116,0,0,1,23.192.844a.836.836,0,0,1,.695.324V0h.487V2.015Zm-1.754-.844a.675.675,0,0,0,1.31-.273.675.675,0,1,0-1.346,0A.675.675,0,0,0,22.622,2.288Zm-16.33.844H5.8V2.851a.779.779,0,0,1-.7.327A1.116,1.116,0,0,1,3.993,2.01,1.116,1.116,0,0,1,5.108.844a.836.836,0,0,1,.7.325V.888h.488V3.132ZM4.517,2.283a.675.675,0,0,0,1.31-.273.675.675,0,1,0-1.346,0A.675.675,0,0,0,4.517,2.283Z" transform="translate(1456.93 7153.038)" fill-rule="evenodd"/>
        <path id="Vector-14" data-name="Vector" d="M.148.126V.172h.04A.039.039,0,0,0,.215.164a.021.021,0,0,0,0-.033A.039.039,0,0,0,.193.126ZM.188.095A.073.073,0,0,1,.236.109.048.048,0,0,1,.253.147.046.046,0,0,1,.24.181.065.065,0,0,1,.2.2L.255.26H.215L.166.2H.15V.26H.115V.095ZM.178.317A.128.128,0,0,0,.231.306.141.141,0,0,0,.274.276.138.138,0,0,0,.3.232.145.145,0,0,0,.3.124.138.138,0,0,0,.274.08.141.141,0,0,0,.231.051.13.13,0,0,0,.178.04a.135.135,0,0,0-.053.01.14.14,0,0,0,0,.256.132.132,0,0,0,.053.01ZM.178,0A.173.173,0,0,1,.248.014.179.179,0,0,1,.3.053.181.181,0,0,1,.342.109a.178.178,0,0,1,0,.139A.182.182,0,0,1,.3.3.188.188,0,0,1,.248.342.173.173,0,0,1,.178.356.177.177,0,0,1,.108.342.177.177,0,0,1,.014.11.18.18,0,0,1,.052.053.177.177,0,0,1,.11.014.178.178,0,0,1,.178,0Z" transform="translate(1481.85 7155.943)" fill-rule="evenodd"/>
      </g>
    </g>
    <g id="Grupo_47" data-name="Grupo 47" transform="translate(-859.104 -6195.146)">
      <path id="Vector-15" data-name="Vector" d="M1.916,0H42.144A1.9,1.9,0,0,1,44.06,1.875V27.188a1.9,1.9,0,0,1-1.916,1.875H1.916A1.9,1.9,0,0,1,0,27.188V1.875A1.9,1.9,0,0,1,1.916,0Z" transform="translate(1670.098 7127.715)" fill="#fff" stroke="#c1c4cc" stroke-width="0.938"/>
      <g id="Grupo_37" data-name="Grupo 37" transform="translate(1674.821 7136.215)">
        <path id="Vector-16" data-name="Vector" d="M6.321,8.152a3.688,3.688,0,0,1-4.583.493l.815-1.312a2.156,2.156,0,0,0,2.7-.291ZM5.392,4.034a2.172,2.172,0,0,0-1.64-.786A2.2,2.2,0,0,0,1.527,5.425a2.013,2.013,0,0,0,.013.267ZM3.776,1.689A3.735,3.735,0,0,1,7.344,4.6L.6,7.508A3.772,3.772,0,0,1,3.776,1.7ZM9.46,0V7.267l1.248.523-.591,1.433L8.884,8.7a1.406,1.406,0,0,1-.608-.516,1.636,1.636,0,0,1-.238-.9V0Zm4.012,1.888a3.684,3.684,0,0,1,1.18-.193A3.736,3.736,0,0,1,18.3,4.707l-1.5.309a2.2,2.2,0,0,0-2.147-1.772,2.156,2.156,0,0,0-.695.113ZM12.184,8.279a3.79,3.79,0,0,1,0-5.638L13.2,3.8a2.23,2.23,0,0,0,0,3.317L12.187,8.278M18.3,6.216a3.737,3.737,0,0,1-3.65,3.008,3.682,3.682,0,0,1-1.182-.194l.487-1.47a2.169,2.169,0,0,0,.7.114A2.2,2.2,0,0,0,16.8,5.9Z" transform="translate(15.962 1.554)" fill-rule="evenodd"/>
        <path id="Vector-17" data-name="Vector" d="M0,.316A6.04,6.04,0,0,1,1.934,0a6.12,6.12,0,0,1,5.98,4.936l-2.462.507A3.6,3.6,0,0,0,1.934,2.537,3.549,3.549,0,0,0,.8,2.724Z" transform="translate(4.17)" fill="#f6d655" fill-rule="evenodd"/>
        <path id="Vector-18" data-name="Vector" d="M2.059,9.237A6.21,6.21,0,0,1,2.059,0L3.725,1.9a3.656,3.656,0,0,0,0,5.438l-1.664,1.9" transform="translate(0 1.548)" fill="#00a4e0" fill-rule="evenodd"/>
        <path id="Vector-19" data-name="Vector" d="M7.916.508A6.121,6.121,0,0,1,5.806,4.04a6.121,6.121,0,0,1-3.869,1.4A6.03,6.03,0,0,1,0,5.121L.8,2.712A3.548,3.548,0,0,0,1.936,2.9a3.6,3.6,0,0,0,2.276-.822A3.6,3.6,0,0,0,5.453,0Z" transform="translate(4.169 6.894)" fill="#ef4123" fill-rule="evenodd"/>
        <path id="Vector-20" data-name="Vector" d="M6.321,8.152a3.688,3.688,0,0,1-4.583.493l.815-1.312a2.156,2.156,0,0,0,2.7-.291ZM5.392,4.034a2.172,2.172,0,0,0-1.64-.786A2.2,2.2,0,0,0,1.527,5.425a2.013,2.013,0,0,0,.013.267ZM3.776,1.689A3.735,3.735,0,0,1,7.344,4.6L.6,7.508A3.772,3.772,0,0,1,3.776,1.7ZM9.46,0V7.267l1.248.523-.591,1.433L8.884,8.7a1.406,1.406,0,0,1-.608-.516,1.636,1.636,0,0,1-.238-.9V0Zm4.012,1.888a3.684,3.684,0,0,1,1.18-.193A3.736,3.736,0,0,1,18.3,4.707l-1.5.309a2.2,2.2,0,0,0-2.147-1.772,2.156,2.156,0,0,0-.695.113ZM12.184,8.279a3.79,3.79,0,0,1,0-5.638L13.2,3.8a2.23,2.23,0,0,0,0,3.317L12.187,8.278M18.3,6.216a3.737,3.737,0,0,1-3.65,3.008,3.682,3.682,0,0,1-1.182-.194l.487-1.47a2.169,2.169,0,0,0,.7.114A2.2,2.2,0,0,0,16.8,5.9Z" transform="translate(15.962 1.143)" fill-rule="evenodd"/>
      </g>
    </g>
    <g id="Grupo_52" data-name="Grupo 52" transform="translate(-1042.964 -6149.146)">
      <path id="Vector-21" data-name="Vector" d="M1.917,0H42.143A1.9,1.9,0,0,1,44.06,1.875V27.188a1.9,1.9,0,0,1-1.917,1.875H1.917A1.9,1.9,0,0,1,0,27.188V1.875A1.9,1.9,0,0,1,1.917,0Z" transform="translate(1673.962 7081.715)" fill="#fff" stroke="#c1c4cc" stroke-width="0.938"/>
      <g id="diners_1_" data-name="diners (1)" transform="translate(1683.709 7086.35)">
        <path id="Caminho_16" data-name="Caminho 16" d="M204.992,93.332a10.1,10.1,0,0,0-10.327-9.982h-4.646a9.752,9.752,0,0,0-9.96,9.982,9.9,9.9,0,0,0,9.96,9.81h4.646C200.064,103.168,204.992,98.731,204.992,93.332Z" transform="translate(-180.059 -83.35)" fill="#0079be"/>
        <path id="Caminho_17" data-name="Caminho 17" d="M205.1,97.432a9.06,9.06,0,1,0,9.041,9.061A9.052,9.052,0,0,0,205.1,97.432Z" transform="translate(-195.11 -96.596)" fill="#fff"/>
        <path id="Caminho_18" data-name="Caminho 18" d="M252.07,164.709a5.752,5.752,0,0,1,3.678-5.359v10.718a5.749,5.749,0,0,1-3.678-5.358Zm7.779,5.361V159.35a5.743,5.743,0,0,1,0,10.72Z" transform="translate(-247.794 -154.837)" fill="#0079be"/>
      </g>
    </g>
    <g id="Grupo_50" data-name="Grupo 50" transform="translate(-1042.493 -6149.146)">
      <path id="Vector-22" data-name="Vector" d="M1.916,0H42.147a1.9,1.9,0,0,1,1.916,1.875V27.188a1.9,1.9,0,0,1-1.916,1.875H1.916A1.9,1.9,0,0,1,0,27.188V1.875A1.9,1.9,0,0,1,1.916,0Z" transform="translate(1553.494 7081.5)" fill="#fff" stroke="#c1c4cc" stroke-width="0.938"/>
      <path id="amex_1_" data-name="amex (1)" d="M31.16,114.789l-.817,1.855h1.638Zm-9.427,1.149a.469.469,0,0,0,.245-.442.423.423,0,0,0-.249-.411,1.292,1.292,0,0,0-.563-.084H19.7v1.033h1.442A1.165,1.165,0,0,0,21.734,115.938ZM3.006,114.789,2.2,116.643h1.62Zm37.6,11.881H38.318v-1H40.6a.708.708,0,0,0,.48-.115.4.4,0,0,0,.14-.3.371.371,0,0,0-.145-.308.632.632,0,0,0-.418-.1c-1.114-.035-2.5.032-2.5-1.44,0-.675.457-1.385,1.7-1.385h2.364v-.926h-2.2a2.6,2.6,0,0,0-1.485.38v-.38H35.29a2.357,2.357,0,0,0-1.418.38v-.38h-5.8v.38a3.254,3.254,0,0,0-1.6-.38H22.642v.38a2.851,2.851,0,0,0-1.673-.38H16.687l-.98.994-.918-.994h-6.4v6.493h6.277l1.01-1.01.951,1.01,3.869,0v-1.527h.381a4.276,4.276,0,0,0,1.653-.228v1.752h3.192v-1.692h.154c.2,0,.216.008.216.192v1.5h9.7a2.9,2.9,0,0,0,1.615-.416v.416H40.48a4.367,4.367,0,0,0,1.74-.3v-1.21a1.91,1.91,0,0,1-1.61.6Zm-19.68-1.533H19.449V126.7H17.142l-1.461-1.54-1.519,1.54H9.46v-4.653h4.774l1.46,1.525,1.51-1.525H21c.942,0,2,.244,2,1.533s-1.029,1.559-2.067,1.559Zm7.121-.211a1.287,1.287,0,0,1,.2.849v.922H27.056v-.582c0-.28.029-.694-.192-.911a1.208,1.208,0,0,0-.871-.206H24.725v1.7H23.533v-4.653h2.74a3.117,3.117,0,0,1,1.428.22,1.079,1.079,0,0,1,.61,1.033,1.308,1.308,0,0,1-.841,1.238,1.289,1.289,0,0,1,.581.391Zm4.9-1.919H30.175v.846h2.711v.949H30.175v.926l2.779,0v.965H28.993v-4.653h3.961ZM36,126.7H33.692v-1h2.3a.732.732,0,0,0,.485-.115.4.4,0,0,0,.14-.3.39.39,0,0,0-.145-.308.656.656,0,0,0-.423-.1c-1.11-.036-2.5.032-2.5-1.44,0-.675.453-1.385,1.7-1.385h2.38v.99H35.451a.847.847,0,0,0-.475.084.35.35,0,0,0-.178.335.359.359,0,0,0,.26.347,1.452,1.452,0,0,0,.462.053l.639.016a2,2,0,0,1,1.355.374,1.248,1.248,0,0,1,.355.986c0,1-.668,1.468-1.865,1.468ZM26.8,123.081a1.239,1.239,0,0,0-.566-.084H24.771v1.045h1.442a1.2,1.2,0,0,0,.586-.1.494.494,0,0,0,.246-.447.438.438,0,0,0-.246-.418ZM40.06,123a.869.869,0,0,0-.48.084.381.381,0,0,0,.086.681,1.438,1.438,0,0,0,.457.053l.643.016a1.962,1.962,0,0,1,1.347.375.6.6,0,0,1,.11.115V123H40.06Zm-19.089,0H19.423v1.185h1.534c.456,0,.74-.212.74-.615S21.4,123,20.971,123Zm-10.328,0v.846h2.606v.949H10.642v.926h2.918l1.356-1.365L13.618,123Zm7.62,3.254v-3.73l-1.822,1.835Zm-7.52-7.471v.8h9.916l0-1.7h.192c.134,0,.173.016.173.224v1.472h5.129v-.395a4.288,4.288,0,0,0,1.9.395h2.158l.462-1.033h1.024l.452,1.033H36.3V118.6l.629.981h3.332v-6.488h-3.3v.766l-.462-.766H33.122v.766l-.424-.766h-4.57a4.339,4.339,0,0,0-1.981.379v-.379H22.993v.379a2.046,2.046,0,0,0-1.34-.379H10.131l-.773,1.676-.794-1.676H4.934v.766l-.4-.766H1.44L0,116.179v2.468l2.125-4.652H3.892l2.018,4.4v-4.4H7.848L9.4,117.15l1.427-3.156H12.8v4.652H11.587l0-3.643-1.721,3.643H8.82L7.094,115v3.647H4.68l-.456-1.038H1.753l-.461,1.038H0v.936H2.031l.457-1.033H3.512l.456,1.033h3.99v-.79l.356.793h2.071l.356-.805Zm15.626-4.244a2.512,2.512,0,0,1,1.8-.542h1.149v1H28.194a1.191,1.191,0,0,0-.913.276,1.472,1.472,0,0,0-.341,1.054,1.543,1.543,0,0,0,.326,1.092,1.2,1.2,0,0,0,.827.24h.533l1.673-3.658h1.778l2.01,4.4v-4.4h1.807l2.086,3.24v-3.24H39.2v4.652H37.514l-2.25-3.492v3.492H32.847l-.462-1.038H29.92l-.448,1.038H28.083a2.608,2.608,0,0,1-1.721-.515,2.253,2.253,0,0,1-.634-1.776,2.375,2.375,0,0,1,.64-1.819Zm-2.441-.542h1.211v4.652H23.926Zm-5.46,0H21.2a2.964,2.964,0,0,1,1.437.223,1.073,1.073,0,0,1,.6,1.03,1.314,1.314,0,0,1-.836,1.24,1.378,1.378,0,0,1,.587.392,1.271,1.271,0,0,1,.2.854v.914h-1.2l0-.587a1.323,1.323,0,0,0-.187-.906,1.219,1.219,0,0,0-.865-.2H19.653v1.692H18.466Zm-4.785,0h3.965v.969H14.869v.839H17.58v.954H14.869v.929h2.778v.962H13.682Z" transform="translate(1554.49 6975.906)" fill="#2557d6"/>
    </g>
    <g id="layer1" transform="translate(221.035 920.745)">
      <path id="path2356" d="M632.129,42.451a.2.2,0,0,1-.2-.2V35.893a2.314,2.314,0,0,1,2.316-2.316l1.879,0a2.311,2.311,0,0,1,2.308,2.312v1.354a2.314,2.314,0,0,1-2.316,2.316h-2.654a.2.2,0,0,1,0-.392h2.654a1.926,1.926,0,0,0,1.924-1.924V35.892a1.924,1.924,0,0,0-1.917-1.921l-1.878,0a1.926,1.926,0,0,0-1.923,1.924v6.362A.2.2,0,0,1,632.129,42.451Z" transform="translate(-83.656 -11.087)" fill="#939598"/>
      <path id="path2360" d="M684.211,39.585a.2.2,0,0,1-.2-.2V34.636a.675.675,0,0,0-.674-.674h-.815a.2.2,0,0,1,0-.392h.815a1.067,1.067,0,0,1,1.066,1.066v4.753A.2.2,0,0,1,684.211,39.585Z" transform="translate(-127.419 -11.082)" fill="#939598"/>
      <path id="path2364" d="M692.4,21.949l-.37-.37a.235.235,0,0,1,0-.332l.369-.369a.235.235,0,0,1,.332,0l.369.369a.235.235,0,0,1,0,.332l-.37.37a.235.235,0,0,1-.332,0" transform="translate(-135.78)" fill="#32bcad"/>
      <path id="path2368" d="M711.447,36.463a.817.817,0,0,1-.582-.241l-1.89-1.89a1.363,1.363,0,0,0-.97-.4H707.2a.2.2,0,1,1,0-.392H708a1.763,1.763,0,0,1,1.247.516l1.89,1.89a.431.431,0,0,0,.609,0l1.883-1.883a1.764,1.764,0,0,1,1.247-.516h.657a.2.2,0,0,1,0,.392h-.657a1.363,1.363,0,0,0-.97.4l-1.883,1.883A.817.817,0,0,1,711.447,36.463Z" transform="translate(-148.841 -11.054)" fill="#939598"/>
      <path id="path2372" d="M708,59.646H707.2a.2.2,0,1,1,0-.392H708a1.363,1.363,0,0,0,.97-.4l1.89-1.89a.823.823,0,0,1,1.164,0l1.883,1.883a1.363,1.363,0,0,0,.97.4h.657a.2.2,0,0,1,0,.392h-.657a1.763,1.763,0,0,1-1.247-.516l-1.883-1.883a.431.431,0,0,0-.609,0l-1.89,1.89a1.763,1.763,0,0,1-1.247.516Z" transform="translate(-148.841 -31.185)" fill="#939598"/>
      <path id="path2376" d="M557.47,72.922a1.509,1.509,0,0,1-1.074-.445l-1.55-1.551a.3.3,0,0,0-.407,0l-1.556,1.556a1.509,1.509,0,0,1-1.074.445H551.5l1.964,1.964a1.57,1.57,0,0,0,2.221,0l1.969-1.969Z" transform="translate(-13.814 -43.449)" fill="#32bcad"/>
      <path id="path2380" d="M551.809,28.978a1.509,1.509,0,0,1,1.074.445l1.556,1.556a.288.288,0,0,0,.407,0l1.55-1.551a1.51,1.51,0,0,1,1.074-.445h.187l-1.969-1.969a1.57,1.57,0,0,0-2.221,0L551.5,28.978Z" transform="translate(-13.816 -4.989)" fill="#32bcad"/>
      <path id="path2384" d="M545.471,49.5l-1.19-1.19a.227.227,0,0,1-.085.017h-.541a1.07,1.07,0,0,0-.751.311l-1.55,1.55a.745.745,0,0,1-1.052,0l-1.556-1.556a1.069,1.069,0,0,0-.751-.311h-.665a.226.226,0,0,1-.08-.016L536.053,49.5a1.57,1.57,0,0,0,0,2.221l1.195,1.195a.226.226,0,0,1,.08-.016h.665a1.07,1.07,0,0,0,.751-.311l1.556-1.556a.762.762,0,0,1,1.053,0l1.55,1.55a1.07,1.07,0,0,0,.751.311h.541a.227.227,0,0,1,.085.017l1.19-1.19a1.57,1.57,0,0,0,0-2.221" transform="translate(0 -23.875)" fill="#32bcad"/>
      <path id="path2388" d="M643.338,94.971a1.375,1.375,0,0,0-.291.044V95.4a.673.673,0,0,0,.227.038c.194,0,.287-.066.287-.237s-.076-.233-.222-.233m-.357.72v-.767h.053l.006.033a1.523,1.523,0,0,1,.3-.049.3.3,0,0,1,.2.058.293.293,0,0,1,.088.238.267.267,0,0,1-.125.247.48.48,0,0,1-.225.05.812.812,0,0,1-.233-.036v.226Z" transform="translate(-93.25 -64.344)" fill="#939598"/>
      <path id="path2392" d="M649.3,94.968c-.194,0-.281.061-.281.232s.086.24.281.24.28-.06.28-.231-.086-.241-.28-.241m.25.472a.421.421,0,0,1-.25.06.427.427,0,0,1-.251-.06.268.268,0,0,1-.1-.236.273.273,0,0,1,.1-.237.554.554,0,0,1,.5,0,.329.329,0,0,1,0,.472" transform="translate(-98.433 -64.344)" fill="#939598"/>
      <path id="path2396" d="M655.73,95.588l-.217-.465h0l-.213.465h-.059l-.231-.561h.072l.192.471h0l.209-.471h.06l.215.471h0l.188-.471h.07l-.231.561Z" transform="translate(-103.691 -64.446)" fill="#939598"/>
      <path id="path2400" d="M663.761,94.967c-.18,0-.241.08-.252.2h.5c-.006-.128-.071-.2-.252-.2m0,.533a.338.338,0,0,1-.233-.062.34.34,0,0,1,.017-.473.376.376,0,0,1,.219-.057.393.393,0,0,1,.224.054.285.285,0,0,1,.1.259h-.576c0,.116.04.218.258.218a1.677,1.677,0,0,0,.29-.032v.059a1.71,1.71,0,0,1-.3.034" transform="translate(-111.013 -64.344)" fill="#939598"/>
      <path id="path2404" d="M669.762,95.485v-.561h.053l.006.033a.992.992,0,0,1,.279-.049h.008v.062h-.016a.916.916,0,0,0-.264.044v.47Z" transform="translate(-116.505 -64.344)" fill="#939598"/>
      <path id="path2408" d="M673.146,94.967c-.18,0-.241.08-.252.2h.5c-.006-.128-.071-.2-.252-.2m0,.533a.338.338,0,0,1-.233-.062.34.34,0,0,1,.017-.473.376.376,0,0,1,.219-.057.393.393,0,0,1,.224.054.285.285,0,0,1,.1.259h-.576c0,.116.04.218.258.218a1.678,1.678,0,0,0,.29-.032v.059a1.71,1.71,0,0,1-.3.034" transform="translate(-119.162 -64.344)" fill="#939598"/>
      <path id="path2412" d="M679.325,93.548a.673.673,0,0,0-.227-.038c-.194,0-.287.066-.287.237s.076.233.222.233a1.445,1.445,0,0,0,.291-.043Zm.012.479-.006-.033a1.526,1.526,0,0,1-.3.049.256.256,0,0,1-.287-.3.264.264,0,0,1,.124-.246.469.469,0,0,1,.227-.051.848.848,0,0,1,.232.036v-.257h.066v.8Z" transform="translate(-124.302 -62.886)" fill="#939598"/>
      <path id="path2416" d="M688.619,93.512a1.376,1.376,0,0,0-.291.044v.387a.653.653,0,0,0,.227.039c.194,0,.287-.066.287-.237s-.076-.233-.222-.233m.168.48a.48.48,0,0,1-.226.05A.8.8,0,0,1,688.31,94l0,.027h-.044v-.8h.066V93.5a1.59,1.59,0,0,1,.3-.047.3.3,0,0,1,.2.058.293.293,0,0,1,.088.238.267.267,0,0,1-.124.247" transform="translate(-132.569 -62.886)" fill="#939598"/>
      <path id="path2420" d="M693.764,95.8v-.061c.032,0,.062.006.083.006a.17.17,0,0,0,.175-.116l.021-.044-.293-.561h.076l.251.484h0l.239-.484h.074l-.315.63a.229.229,0,0,1-.234.152.687.687,0,0,1-.081-.006" transform="translate(-137.335 -64.447)" fill="#939598"/>
      <path id="path2424" d="M702.951,93.949h-.218v.2h.219c.15,0,.207-.017.207-.1s-.078-.1-.208-.1m-.04-.319h-.178v.2h.179c.148,0,.207-.018.207-.1s-.074-.1-.208-.1m.338.586a.647.647,0,0,1-.353.053h-.332v-.761h.324a.618.618,0,0,1,.323.049.161.161,0,0,1,.078.151.166.166,0,0,1-.12.169v0c.1.022.161.072.161.18a.164.164,0,0,1-.081.154" transform="translate(-144.988 -63.128)" fill="#939598"/>
      <path id="path2428" d="M710.087,95.25c-.066-.006-.132-.009-.2-.009-.114,0-.155.023-.155.075s.033.076.121.076a1.15,1.15,0,0,0,.236-.033Zm.033.236,0-.033a1.355,1.355,0,0,1-.3.049.291.291,0,0,1-.17-.041.174.174,0,0,1,.032-.288.516.516,0,0,1,.21-.03c.059,0,.138,0,.2.008v-.01c0-.088-.058-.117-.216-.117-.061,0-.136,0-.207.01V94.92c.079-.007.168-.011.241-.011a.475.475,0,0,1,.261.052.207.207,0,0,1,.077.192v.332Z" transform="translate(-151.079 -64.344)" fill="#939598"/>
      <path id="path2432" d="M716.687,95.485v-.31c0-.1-.052-.139-.146-.139a1.059,1.059,0,0,0-.229.036v.413h-.157v-.561h.128l.005.036a1.3,1.3,0,0,1,.3-.051.276.276,0,0,1,.192.058.218.218,0,0,1,.061.176v.343Z" transform="translate(-156.791 -64.344)" fill="#939598"/>
      <path id="path2436" d="M722.77,95.5a.317.317,0,0,1-.209-.059.289.289,0,0,1-.089-.238.273.273,0,0,1,.114-.24.445.445,0,0,1,.247-.056c.064,0,.128,0,.2.011v.12c-.057-.005-.125-.01-.179-.01-.149,0-.219.047-.219.176s.052.173.174.173a1.32,1.32,0,0,0,.236-.029v.116a1.409,1.409,0,0,1-.273.036" transform="translate(-162.275 -64.344)" fill="#939598"/>
      <path id="path2440" d="M727.848,95.026c-.149,0-.214.047-.214.174s.064.182.214.182.212-.046.212-.173-.063-.183-.212-.183m.269.416a.472.472,0,0,1-.269.059.478.478,0,0,1-.27-.059.319.319,0,0,1,0-.474.646.646,0,0,1,.539,0,.262.262,0,0,1,.1.237.265.265,0,0,1-.1.238" transform="translate(-166.617 -64.344)" fill="#939598"/>
      <path id="path2444" d="M737.444,94.182a.423.423,0,0,1-.273-.079.392.392,0,0,1-.119-.318.373.373,0,0,1,.154-.323.583.583,0,0,1,.322-.072c.085,0,.171.006.266.013v.137c-.081-.007-.181-.012-.259-.012-.217,0-.309.082-.309.258s.086.259.246.259a1.732,1.732,0,0,0,.339-.046v.136a1.884,1.884,0,0,1-.367.048" transform="translate(-174.936 -63.025)" fill="#939598"/>
      <path id="path2448" d="M744,95.009c-.13,0-.18.047-.19.132h.378c0-.091-.058-.132-.188-.132m-.023.492a.362.362,0,0,1-.238-.062.288.288,0,0,1-.09-.234.284.284,0,0,1,.106-.237.417.417,0,0,1,.246-.059.433.433,0,0,1,.243.057c.09.063.1.161.1.277h-.533c0,.086.049.141.207.141a2.021,2.021,0,0,0,.3-.029v.11a2.118,2.118,0,0,1-.338.037" transform="translate(-180.661 -64.344)" fill="#939598"/>
      <path id="path2452" d="M750.7,95.485v-.31c0-.1-.052-.139-.146-.139a1.059,1.059,0,0,0-.229.036v.413h-.157v-.561h.128l.006.036a1.3,1.3,0,0,1,.3-.051.276.276,0,0,1,.192.058.218.218,0,0,1,.061.176v.343Z" transform="translate(-186.328 -64.344)" fill="#939598"/>
      <path id="path2456" d="M756.554,94.482a.2.2,0,0,1-.182-.08.291.291,0,0,1-.041-.17v-.21h-.113v-.117h.113l.017-.17h.139v.17h.221v.117h-.221v.18a.268.268,0,0,0,.016.107.1.1,0,0,0,.1.052.712.712,0,0,0,.112-.011v.112a.881.881,0,0,1-.162.02" transform="translate(-191.578 -63.325)" fill="#939598"/>
      <path id="path2460" d="M761.1,95.485v-.561h.128l.006.036a.974.974,0,0,1,.278-.051h.02v.133h-.054a.878.878,0,0,0-.22.029v.414Z" transform="translate(-195.818 -64.344)" fill="#939598"/>
      <path id="path2464" d="M765.352,95.25c-.066-.006-.132-.009-.2-.009-.114,0-.154.023-.154.075s.033.076.121.076a1.151,1.151,0,0,0,.236-.033Zm.033.236,0-.033a1.356,1.356,0,0,1-.3.049.292.292,0,0,1-.17-.041.174.174,0,0,1,.032-.288.516.516,0,0,1,.21-.03c.059,0,.138,0,.2.008v-.01c0-.088-.058-.117-.216-.117-.061,0-.136,0-.207.01V94.92c.079-.007.168-.011.241-.011a.475.475,0,0,1,.261.052.207.207,0,0,1,.077.192v.332Z" transform="translate(-199.068 -64.344)" fill="#939598"/>
      <path id="path2466" d="M771.422,93.229h.157v.8h-.157Z" transform="translate(-204.78 -62.886)" fill="#939598"/>
    </g>
  </g>
</svg>
