<svg xmlns="http://www.w3.org/2000/svg" width="48.387" height="48.293" viewBox="0 0 48.387 48.293">
  <path id="fi-rs-box-open-full" d="M47.534,20.838l-4.3-7.167L24.188,20.02,5.145,13.672l-4.263,7.1a6.1,6.1,0,0,0,3.142,8.871V41.608l20.165,6.721,20.165-6.721V29.644a6.041,6.041,0,0,0,3.18-8.808ZM4.34,22.849l2.6-4.327,14.231,4.745-3.091,5.152a2.01,2.01,0,0,1-2.367.877L5.461,25.882A2.072,2.072,0,0,1,4.34,22.853Zm3.716,8.143,6.374,2.125a6.109,6.109,0,0,0,1.936.317,6.011,6.011,0,0,0,5.166-2.942l.639-1.067V43.411L8.056,38.7ZM26.2,43.411V29.425l.639,1.067a6.011,6.011,0,0,0,5.166,2.942,6.119,6.119,0,0,0,1.936-.317l6.374-2.123v7.713L26.2,43.413ZM44.237,24.643a2.006,2.006,0,0,1-1.248,1.212L32.67,29.293a2.005,2.005,0,0,1-2.367-.877l-3.091-5.152,14.23-4.745,2.636,4.394a1.992,1.992,0,0,1,.161,1.728Zm-29.8-12.125-4.277-1.426L21.214.036l5.543,5.543,2.418-2.418,8.209,8.209L33.107,12.8,29.175,8.864l-6.427,6.427-4.277-1.426L23.9,8.433,21.212,5.741,14.433,12.52Z" transform="translate(-0.009 -0.036)" fill="#bc81ff"/>
</svg>
