<svg id="_01_align_center" xmlns="http://www.w3.org/2000/svg" width="35.86" height="43.397" viewBox="0 0 35.86 43.397">
  <path id="Caminho_14" data-name="Caminho 14" d="M58.655,43.595l-1.244-1.08C55.7,41.059,40.725,27.955,40.725,18.37a17.932,17.932,0,1,1,35.86,0c0,9.586-14.972,22.69-16.679,24.152Zm0-39.468A14.165,14.165,0,0,0,44.6,18.37c0,6.022,9.211,15.642,14.053,20.044,4.842-4.4,14.053-14.03,14.053-20.044A14.165,14.165,0,0,0,58.655,4.127Z" transform="translate(-40.725 -0.198)" fill="#bc81ff"/>
  <path id="Caminho_15" data-name="Caminho 15" d="M177.233,144.005a7.2,7.2,0,1,1,7.107-7.2A7.156,7.156,0,0,1,177.233,144.005Zm0-10.8a3.6,3.6,0,1,0,3.554,3.6A3.578,3.578,0,0,0,177.233,133.2Z" transform="translate(-159.303 -118.63)" fill="#bc81ff"/>
</svg>
