<svg id="_01_align_center" data-name="01 align center" xmlns="http://www.w3.org/2000/svg" width="43.396" height="43.396" viewBox="0 0 43.396 43.396">
  <path id="Caminho_31" data-name="Caminho 31" d="M43.4,18.082,39.418,0H3.978L.043,17.689,0,19.89a7.171,7.171,0,0,0,1.808,4.734V37.972A5.425,5.425,0,0,0,7.233,43.4H36.164a5.425,5.425,0,0,0,5.425-5.425V24.624A7.171,7.171,0,0,0,43.4,19.89Zm-39.78.2L6.871,3.616h5.786v7.233h3.616V3.616H27.123v7.233h3.616V3.616h5.786L39.78,18.279V19.89a3.616,3.616,0,0,1-3.616,3.616H34.356a3.616,3.616,0,0,1-3.616-3.616H27.123a3.616,3.616,0,0,1-3.616,3.616H19.89a3.616,3.616,0,0,1-3.616-3.616H12.657a3.616,3.616,0,0,1-3.616,3.616H7.233A3.616,3.616,0,0,1,3.616,19.89Zm32.547,21.5H7.233a1.808,1.808,0,0,1-1.808-1.808V26.866a7.122,7.122,0,0,0,1.808.257H9.041a7.188,7.188,0,0,0,5.425-2.5,7.188,7.188,0,0,0,5.425,2.5h3.616a7.215,7.215,0,0,0,5.425-2.454,7.215,7.215,0,0,0,5.425,2.454h1.808a7.122,7.122,0,0,0,1.808-.257V37.972A1.808,1.808,0,0,1,36.164,39.78Z" fill="#bc81ff"/>
</svg>
